<svg width="875" height="875" viewBox="0 0 875 875" fill="none" xmlns="http://www.w3.org/2000/svg">
<rect width="875" height="875" fill="#0E0E0E"/>
<path d="M408.961 489.465L602.719 733L463.214 432.846L408.961 489.465Z" fill="#EBEBEB"/>
<path d="M482.589 415.008L616.67 733L583.343 216.457L482.589 415.008Z" fill="#EBEBEB"/>
<path d="M750.75 469.299L633.72 733L602.981 146.986L714.324 227.315V489.465L750.75 469.299Z" fill="#EBEBEB"/>
<path d="M408.961 247.48C451.588 227.573 562.262 171.472 570.943 168.37L463.214 401.823L393.461 469.299L231.479 340.551L277.206 227.315L408.961 247.48Z" fill="#EBEBEB"/>
<path d="M497.315 625.193L389.586 489.465L329.908 444.48L134.6 579.433L184.202 682.587L497.315 625.193Z" fill="#EBEBEB"/>
<path d="M314.408 432.846L123.75 564.697L134.6 469.299L231.479 366.146L314.408 432.846Z" fill="#EBEBEB"/>
</svg>
