<svg width="1197" height="875" viewBox="0 0 1197 875" fill="none" xmlns="http://www.w3.org/2000/svg">
<rect x="160.816" width="875" height="875" fill="url(#paint0_linear_13_5)"/>
<rect x="160.816" width="875" height="875" fill="url(#paint1_linear_13_5)"/>
<g filter="url(#filter1_d_13_5)">
<rect width="468.839" height="468.839" rx="100" transform="matrix(0.965926 0.258819 -0.707107 0.707107 538.332 211.276)" fill="#0E0E0E" fill-opacity="0.5" shape-rendering="crispEdges"/>
</g>
<g filter="url(#filter2_d_13_5)">
<path d="M576.764 477.738L725.506 664.693L618.412 434.274L576.764 477.738Z" fill="#EBEBEB" fill-opacity="0.78" shape-rendering="crispEdges"/>
<path d="M633.286 420.58L736.216 664.693L710.632 268.158L633.286 420.58Z" fill="#EBEBEB" fill-opacity="0.78" shape-rendering="crispEdges"/>
<path d="M839.145 462.258L749.305 664.693L725.707 214.827L811.182 276.494L811.182 477.738L839.145 462.258Z" fill="#EBEBEB" fill-opacity="0.78" shape-rendering="crispEdges"/>
<path d="M576.764 291.974C609.488 276.692 694.449 233.625 701.113 231.244L618.412 410.458L564.865 462.258L440.517 363.422L475.62 276.494L576.764 291.974Z" fill="#EBEBEB" fill-opacity="0.78" shape-rendering="crispEdges"/>
<path d="M644.591 581.933L561.89 477.738L516.078 443.205L366.146 546.804L404.224 625.992L644.591 581.933Z" fill="#EBEBEB" fill-opacity="0.78" shape-rendering="crispEdges"/>
<path d="M504.178 434.274L357.816 535.492L366.146 462.258L440.517 383.07L504.178 434.274Z" fill="#EBEBEB" fill-opacity="0.78" shape-rendering="crispEdges"/>
</g>
<defs>
<filter id="filter1_d_13_5" x="222.399" y="232.549" width="753.21" height="474.317" filterUnits="userSpaceOnUse" color-interpolation-filters="sRGB">
<feFlood flood-opacity="0" result="BackgroundImageFix"/>
<feColorMatrix in="SourceAlpha" type="matrix" values="0 0 0 0 0 0 0 0 0 0 0 0 0 0 0 0 0 0 127 0" result="hardAlpha"/>
<feOffset dy="32"/>
<feGaussianBlur stdDeviation="16"/>
<feComposite in2="hardAlpha" operator="out"/>
<feColorMatrix type="matrix" values="0 0 0 0 0 0 0 0 0 0 0 0 0 0 0 0 0 0 0.25 0"/>
<feBlend mode="normal" in2="BackgroundImageFix" result="effect1_dropShadow_13_5"/>
<feBlend mode="normal" in="SourceGraphic" in2="effect1_dropShadow_13_5" result="shape"/>
</filter>
<filter id="filter2_d_13_5" x="306.816" y="183.827" width="583.329" height="551.866" filterUnits="userSpaceOnUse" color-interpolation-filters="sRGB">
<feFlood flood-opacity="0" result="BackgroundImageFix"/>
<feColorMatrix in="SourceAlpha" type="matrix" values="0 0 0 0 0 0 0 0 0 0 0 0 0 0 0 0 0 0 127 0" result="hardAlpha"/>
<feOffset dy="20"/>
<feGaussianBlur stdDeviation="25.5"/>
<feComposite in2="hardAlpha" operator="out"/>
<feColorMatrix type="matrix" values="0 0 0 0 1 0 0 0 0 1 0 0 0 0 1 0 0 0 0.24 0"/>
<feBlend mode="normal" in2="BackgroundImageFix" result="effect1_dropShadow_13_5"/>
<feBlend mode="normal" in="SourceGraphic" in2="effect1_dropShadow_13_5" result="shape"/>
</filter>
<linearGradient id="paint0_linear_13_5" x1="598.316" y1="0" x2="598.316" y2="875" gradientUnits="userSpaceOnUse">
<stop offset="0.206731"/>
<stop offset="0.480769" stop-color="#332D2D"/>
<stop offset="1" stop-color="#FFDFE0"/>
</linearGradient>
<linearGradient id="paint1_linear_13_5" x1="598.316" y1="0" x2="598.316" y2="875" gradientUnits="userSpaceOnUse">
<stop offset="0.206731"/>
<stop offset="0.480769" stop-color="#3C3C3C"/>
<stop offset="1" stop-color="white"/>
</linearGradient>
</defs>
</svg>
